<?xml version="1.0" encoding="UTF-8" standalone="no"?>
<!-- Created with Keyshape -->
<svg xmlns="http://www.w3.org/2000/svg" width="736px" height="849px" viewBox="0 0 736 849">
    <defs>
        <linearGradient id="Gradient-0" x1="0.0301937" y1="0.00144465" x2="1" y2="0.979963">
            <stop offset="0" stop-color="#ff89a5"/>
            <stop offset="1" stop-color="#d0021b"/>
        </linearGradient>
        <linearGradient id="Gradient-1" x1="0.543258" y1="-0.0186769" x2="1" y2="1">
            <stop offset="0" stop-color="#a8dbff"/>
            <stop offset="1" stop-color="#3375c3"/>
        </linearGradient>
        <linearGradient id="Gradient-2" x1="0.524574" y1="0.0835884" x2="0.99657" y2="0.993388">
            <stop offset="0" stop-color="#cfe2a6"/>
            <stop offset="1" stop-color="#5c9918"/>
        </linearGradient>
        <linearGradient id="Gradient-3" x1="0.556703" y1="0.374512" x2="0.989328" y2="0.984941">
            <stop offset="0" stop-color="#eac0fb"/>
            <stop offset="1" stop-color="#6900c5"/>
        </linearGradient>
    </defs>
    <style>
@keyframes line_red_o { 0% { opacity: 0.5; } 50% { opacity: 1; } 100% { opacity: 0.5; } }
@keyframes line_blue_o { 0% { opacity: 0.5; } 50% { opacity: 1; } 100% { opacity: 0.5; } }
@keyframes line_green_o { 0% { opacity: 0.5; } 50% { opacity: 1; } 100% { opacity: 0.5; } }
@keyframes line_purple_o { 0% { opacity: 0.5; } 50% { opacity: 1; } 100% { opacity: 0.5; } }
@keyframes traj_marker_01_f { 0% { fill: #9B9B9B; } 50% { fill: #4f4c54; } 100% { fill: #9b9b9b; } }
@keyframes traj_marker_02_f { 0% { fill: #9B9B9B; } 50% { fill: #4f4c54; } 100% { fill: #9b9b9b; } }
@keyframes traj_marker_03_f { 0% { fill: #9B9B9B; } 50% { fill: #4f4c54; } 100% { fill: #9b9b9b; } }
@keyframes traj_marker_04_f { 0% { fill: #9B9B9B; } 50% { fill: #4f4c54; } 100% { fill: #9b9b9b; } }
@keyframes traj_marker_05_f { 0% { fill: #9B9B9B; } 50% { fill: #4f4c54; } 100% { fill: #9b9b9b; } }
@keyframes traj_marker_06_f { 0% { fill: #9B9B9B; } 50% { fill: #4f4c54; } 100% { fill: #9b9b9b; } }
@keyframes traj_marker_07_f { 0% { fill: #9B9B9B; } 50% { fill: #4f4c54; } 100% { fill: #9b9b9b; } }
@keyframes traj_marker_08_f { 0% { fill: #9B9B9B; } 50% { fill: #4f4c54; } 100% { fill: #9b9b9b; } }
@keyframes traj_marker_09_f { 0% { fill: #9B9B9B; } 50% { fill: #4f4c54; } 100% { fill: #9b9b9b; } }
@keyframes traj_marker_10_f { 0% { fill: #9B9B9B; } 50% { fill: #4f4c54; } 100% { fill: #9b9b9b; } }
@keyframes traj_marker_11_f { 0% { fill: #9B9B9B; } 50% { fill: #4f4c54; } 100% { fill: #9b9b9b; } }
@keyframes traj_marker_12_f { 0% { fill: #9B9B9B; } 50% { fill: #4f4c54; } 100% { fill: #9b9b9b; } }
    </style>
    <title>splitr_hex_logo</title>
    <desc>Created with Sketch.</desc>
    <g id="Page-1" stroke="none" stroke-width="1" fill="none" fill-rule="evenodd">
        <g id="splitr_hex_logo">
            <path id="hex_outside" fill="#4A4A4A" d="M706.338,195.45L428.538,35.05L368.238,0.25L307.938,35.05L30.1376,195.45L0.837612,212.35L0.837612,636.65L30.1376,653.55L311.338,815.95L368.238,848.75L425.138,815.95L706.338,653.55L735.638,636.65L735.638,212.35Z"/>
            <path id="hex_inside" fill="#F4F2DB" d="M725.944,632.073L368.238,838.592L10.5312,632.073L10.5312,218.927L368.238,12.4078L725.944,218.927Z"/>
            <path id="line_red" d="M426.405,468.716C421.129,412.099,405.593,342.765,379.797,260.714C354.001,178.662,320.756,112.776,280.061,63.0541" stroke="url(#Gradient-0)" stroke-width="8" stroke-linecap="square" opacity="0.5" style="animation: 4s linear infinite both line_red_o;"/>
            <path id="line_blue" d="M419.405,468.716C410.759,419.81,385.301,359.918,343.031,289.04C300.761,218.163,246.285,161.249,179.601,118.299" stroke="url(#Gradient-1)" stroke-width="8" stroke-linecap="square" opacity="0.5" style="animation: 4s linear infinite both line_blue_o;"/>
            <path id="line_green" d="M412.405,471.716C387,414.7,359.046,368.007,328.544,331.636C323.547,325.677,318.337,319.624,312.915,313.477C257.851,251.056,187.086,200.932,100.619,163.106" stroke="url(#Gradient-2)" stroke-width="8" stroke-linecap="square" opacity="0.5" style="animation: 4s linear infinite both line_green_o;"/>
            <path id="line_purple" d="M406.405,476.716C374.6,427.954,339.604,388.02,301.417,356.914C295.161,351.818,288.638,346.641,281.85,341.384C212.914,287.999,124.071,245.131,15.3195,212.781" stroke="url(#Gradient-3)" stroke-width="8" stroke-linecap="square" opacity="0.5" style="animation: 4s linear infinite both line_purple_o;"/>
            <path id="hex_line" d="M367.5,7.5L7.5,215.5" stroke="#4A4A4A" stroke-width="9" stroke-linecap="square"/>
            <g id="text_outlines" fill="#4A4A4A" transform="translate(81,481)">
                <path id="splitr_text_outlines" d="M486.937,180.58L486.937,47.0798L526.812,47.0798L526.812,68.2048L528.688,68.2048C531.062,59.0798,540.937,45.0798,560.312,45.0798C565.937,45.0798,569.812,45.5798,572.312,46.3298L572.312,80.5798C569.562,79.5798,563.562,79.0798,557.688,79.0798C537.188,79.0798,527.937,90.7048,527.937,108.58L527.937,180.58L486.937,180.58ZM402.412,49.0798L402.412,16.0798L440.912,16.0798L440.912,49.0798L470.163,49.0798L470.163,79.3298L440.912,79.3298L440.912,135.33C440.912,146.955,446.663,150.955,458.912,150.955C463.787,150.955,468.412,150.705,470.912,150.455L470.912,179.455C467.912,180.08,458.663,180.955,449.287,180.955C415.163,180.955,401.537,170.455,401.537,142.58L401.537,79.3298L381.163,79.3298L381.163,49.0798L402.412,49.0798ZM326.012,180.58L326.012,47.0798L365.887,47.0798L365.887,180.58L326.012,180.58ZM267.613,180.58L267.613,0.954797L307.487,0.954797L307.487,180.58L267.613,180.58ZM206.463,182.08C188.338,182.08,174.588,173.955,168.838,159.705L166.838,159.705L166.838,224.955L126.963,224.955L126.963,46.9548L166.463,46.9548L166.463,68.2048L168.463,68.2048C173.838,53.9548,188.212,45.5798,206.712,45.5798C237.463,45.5798,255.588,68.0798,255.588,106.33L255.588,120.955C255.588,159.455,237.338,182.08,206.463,182.08ZM190.963,150.83C205.838,150.83,214.463,139.08,214.463,118.83L214.463,108.955C214.463,88.5798,205.838,76.9548,190.712,76.9548C175.963,76.9548,166.838,88.5798,166.838,107.83L166.838,120.83C166.838,139.08,176.338,150.83,190.963,150.83ZM3.4375,87.2048C3.4375,56.4548,29.6875,44.5798,59.5625,44.5798C90.3125,44.5798,112.562,58.3298,112.562,84.8298L77.8125,84.8298C77.0625,77.8298,70.9375,70.9548,59.0625,70.9548C47.4375,70.9548,41.0625,76.3298,41.0625,84.2048C41.0625,96.4548,62.4375,97.9548,76.4375,100.33C101.062,104.33,117.062,114.83,117.062,138.33C117.062,165.955,95.5625,183.08,57.3125,183.08C20.6875,183.08,0.5625,166.205,0.5625,142.455L39.1875,142.455C40.0625,150.58,46.8125,156.58,59.1875,156.58C72.8125,156.58,78.5625,150.58,78.5625,142.955C78.5625,131.58,62.3125,130.58,45.6875,127.455C22.3125,122.83,3.4375,113.205,3.4375,87.2048Z"/>
            </g>
            <g id="site_circle" transform="translate(402,469)">
                <path id="site_circle_dot_i" d="M4.99218,21.9447C4.99218,11.6829,12.9503,4.98127,24.8875,4.98127C36.8247,4.98127,44.7828,11.7876,44.7828,21.9447C44.7828,32.1017,36.9294,38.8033,24.8875,38.8033C13.055,38.8033,4.99218,32.1017,4.99218,21.9447Z" fill="#24558E"/>
                <path id="site_circle_inside" d="M2.26998,21.8586C2.26998,10.1136,11.3784,2.4433,25.0411,2.4433C38.7037,2.4433,47.8122,10.2334,47.8122,21.8586C47.8122,33.4839,38.8236,41.1542,25.0411,41.1542C11.4983,41.1542,2.26998,33.4839,2.26998,21.8586ZM5.22413,21.8509C5.22413,31.9679,13.2552,38.6431,25.0411,38.6431C37.0355,38.6431,44.858,31.9679,44.858,21.8509C44.858,11.7338,36.9312,4.95432,25.0411,4.95432C13.1509,4.95432,5.22413,11.6295,5.22413,21.8509Z" fill="#F4F2DB"/>
                <path id="site_circle_outside" d="M0.224684,21.864C0.224684,9.064,10.1512,0.704797,25.0411,0.704797C39.9309,0.704797,49.8575,9.19461,49.8575,21.864C49.8575,34.5334,40.0615,42.8927,25.0411,42.8927C10.2819,42.8927,0.224684,34.5334,0.224684,21.864ZM3.44417,21.8556C3.44417,32.8813,12.1966,40.1561,25.0411,40.1561C38.1129,40.1561,46.638,32.8813,46.638,21.8556C46.638,10.8298,37.9992,3.44136,25.0411,3.44136C12.0829,3.44136,3.44417,10.7161,3.44417,21.8556Z" fill="#1357A6"/>
            </g>
            <g id="traj_markers" fill="#9B9B9B" transform="translate(93,61)">
                <ellipse id="traj_marker_01" rx="12.4493" ry="12.4493" stroke-width="3" fill-rule="nonzero" fill="#9B9B9B" transform="translate(0,0) translate(308.968,277.03)" style="animation: 4s linear infinite both traj_marker_01_f;"/>
                <ellipse id="traj_marker_02" rx="12.4493" ry="12.4493" stroke-width="3" fill-rule="nonzero" fill="#9B9B9B" transform="translate(0,0) translate(279.528,178.391)" style="animation: 4s linear infinite both traj_marker_02_f;"/>
                <ellipse id="traj_marker_03" rx="12.4493" ry="12.4493" stroke-width="3" fill-rule="nonzero" fill="#9B9B9B" transform="translate(0,0) translate(243.455,90.4598)" style="animation: 4s linear infinite both traj_marker_03_f;"/>
                <ellipse id="traj_marker_04" rx="12.4493" ry="12.4493" stroke-width="3" fill-rule="nonzero" fill="#9B9B9B" transform="translate(0,0) translate(195.949,13.2789)" style="animation: 4s linear infinite both traj_marker_04_f;"/>
                <ellipse id="traj_marker_05" rx="12.4493" ry="12.4493" stroke-width="3" fill-rule="nonzero" fill="#9B9B9B" transform="translate(0,0) translate(255.248,237.079)" style="animation: 4s linear infinite both traj_marker_05_f;"/>
                <ellipse id="traj_marker_06" rx="12.4493" ry="12.4493" stroke-width="3" fill-rule="nonzero" fill="#9B9B9B" transform="translate(0,0) translate(148.229,104.561)" style="animation: 4s linear infinite both traj_marker_06_f;"/>
                <ellipse id="traj_marker_07" rx="12.4493" ry="12.4493" stroke-width="3" fill-rule="nonzero" fill="#9B9B9B" transform="translate(0,0) translate(264.812,310.574)" style="animation: 4s linear infinite both traj_marker_07_f;"/>
                <ellipse id="traj_marker_08" rx="12.4493" ry="12.4493" stroke-width="3" fill-rule="nonzero" fill="#9B9B9B" transform="translate(0,0) translate(200.409,231.837)" style="animation: 4s linear infinite both traj_marker_08_f;"/>
                <ellipse id="traj_marker_09" rx="12.4493" ry="12.4493" stroke-width="3" fill-rule="nonzero" fill="#9B9B9B" transform="translate(0,0) translate(137.299,176.689)" style="animation: 4s linear infinite both traj_marker_09_f;"/>
                <ellipse id="traj_marker_10" rx="12.4493" ry="12.4493" stroke-width="3" fill-rule="nonzero" fill="#9B9B9B" transform="translate(0,0) translate(47.8731,121.018)" style="animation: 4s linear infinite both traj_marker_10_f;"/>
                <ellipse id="traj_marker_11" rx="12.4493" ry="12.4493" stroke-width="3" fill-rule="nonzero" fill="#9B9B9B" transform="translate(0,0) translate(163.626,261.955)" style="animation: 4s linear infinite both traj_marker_11_f;"/>
                <ellipse id="traj_marker_12" rx="12.4493" ry="12.4493" stroke-width="3" fill-rule="nonzero" fill="#9B9B9B" transform="translate(125,324) translate(-112.364,-141.118)" style="animation: 4s linear infinite both traj_marker_12_f;"/>
            </g>
        </g>
    </g>
</svg>
