<?xml version="1.0" encoding="UTF-8"?>
<svg width="736px" height="849px" viewBox="0 0 736 849" version="1.1" xmlns="http://www.w3.org/2000/svg" xmlns:xlink="http://www.w3.org/1999/xlink">
    <!-- Generator: Sketch 48.2 (47327) - http://www.bohemiancoding.com/sketch -->
    <title>splitr_hex_logo</title>
    <desc>Created with Sketch.</desc>
    <defs>
        <linearGradient x1="3.01937181%" y1="0.144465397%" x2="100%" y2="97.9962804%" id="linearGradient-1">
            <stop stop-color="#FF89A5" offset="0%"></stop>
            <stop stop-color="#D0021B" offset="100%"></stop>
        </linearGradient>
        <linearGradient x1="54.3258405%" y1="-1.86768557%" x2="100%" y2="100%" id="linearGradient-2">
            <stop stop-color="#A8DBFF" offset="0%"></stop>
            <stop stop-color="#3375C3" offset="100%"></stop>
        </linearGradient>
        <linearGradient x1="52.4574178%" y1="8.35883911%" x2="99.6569991%" y2="99.3388453%" id="linearGradient-3">
            <stop stop-color="#CFE2A6" offset="0%"></stop>
            <stop stop-color="#5C9918" offset="100%"></stop>
        </linearGradient>
        <linearGradient x1="55.6703442%" y1="37.4512051%" x2="98.9327522%" y2="98.4941218%" id="linearGradient-4">
            <stop stop-color="#EAC0FB" offset="0%"></stop>
            <stop stop-color="#6900C5" offset="100%"></stop>
        </linearGradient>
    </defs>
    <g id="Page-1" stroke="none" stroke-width="1" fill="none" fill-rule="evenodd">
        <g id="splitr_hex_logo">
            <polygon id="hex_outside" fill="#4A4A4A" points="706.337612 195.45 428.537612 35.05 368.237612 0.25 307.937612 35.05 30.1376121 195.45 0.837612102 212.35 0.837612102 636.65 30.1376121 653.55 311.337612 815.95 368.237612 848.75 425.137612 815.95 706.337612 653.55 735.637612 636.65 735.637612 212.35"></polygon>
            <polygon id="hex_inside" fill="#F4F2DB" points="725.944024 632.072543 368.237612 838.592187 10.5312 632.072543 10.5312 218.927457 368.237612 12.4078125 725.944024 218.927457"></polygon>
            <path d="M426.405167,468.716108 C421.128655,412.099191 405.592532,342.764993 379.796798,260.713515 C354.001064,178.662036 320.75593,112.775554 280.061397,63.054067" id="line_red" stroke="url(#linearGradient-1)" stroke-width="8" stroke-linecap="square"></path>
            <path d="M419.405167,468.716108 C410.758897,419.80953 385.30088,359.917566 343.031118,289.040216 C300.761356,218.162867 246.284756,161.249093 179.601318,118.298896" id="line_blue" stroke="url(#linearGradient-2)" stroke-width="8" stroke-linecap="square"></path>
            <path d="M412.405167,471.716108 C386.999984,414.700258 359.046365,368.006784 328.544309,331.635684 C323.546789,325.676569 318.336909,319.62364 312.914667,313.476897 C257.850941,251.055747 187.085877,200.932213 100.619476,163.106296" id="line_green" stroke="url(#linearGradient-3)" stroke-width="8" stroke-linecap="square"></path>
            <path d="M406.405167,476.716108 C374.599664,427.954 339.603698,388.019978 301.417269,356.91404 C295.160726,351.81758 288.638322,346.640886 281.850057,341.38396 C212.914142,287.999035 124.070628,245.131497 15.3195144,212.781344" id="line_purple" stroke="url(#linearGradient-4)" stroke-width="8" stroke-linecap="square"></path>
            <path d="M367.5,7.5 L7.5,215.5" id="hex_line" stroke="#4A4A4A" stroke-width="9" stroke-linecap="square"></path>
            <g id="text_outlines" transform="translate(81.000000, 481.000000)" fill="#4A4A4A">
                <path d="M486.9375,180.579797 L486.9375,47.0797967 L526.8125,47.0797967 L526.8125,68.2047967 L528.6875,68.2047967 C531.0625,59.0797967 540.9375,45.0797967 560.3125,45.0797967 C565.9375,45.0797967 569.8125,45.5797967 572.3125,46.3297967 L572.3125,80.5797967 C569.5625,79.5797967 563.5625,79.0797967 557.6875,79.0797967 C537.1875,79.0797967 527.9375,90.7047967 527.9375,108.579797 L527.9375,180.579797 L486.9375,180.579797 Z M402.4125,49.0797967 L402.4125,16.0797967 L440.9125,16.0797967 L440.9125,49.0797967 L470.1625,49.0797967 L470.1625,79.3297967 L440.9125,79.3297967 L440.9125,135.329797 C440.9125,146.954797 446.6625,150.954797 458.9125,150.954797 C463.7875,150.954797 468.4125,150.704797 470.9125,150.454797 L470.9125,179.454797 C467.9125,180.079797 458.6625,180.954797 449.2875,180.954797 C415.1625,180.954797 401.5375,170.454797 401.5375,142.579797 L401.5375,79.3297967 L381.1625,79.3297967 L381.1625,49.0797967 L402.4125,49.0797967 Z M326.0125,180.579797 L326.0125,47.0797967 L365.8875,47.0797967 L365.8875,180.579797 L326.0125,180.579797 Z M267.6125,180.579797 L267.6125,0.954796738 L307.4875,0.954796738 L307.4875,180.579797 L267.6125,180.579797 Z M206.4625,182.079797 C188.3375,182.079797 174.5875,173.954797 168.8375,159.704797 L166.8375,159.704797 L166.8375,224.954797 L126.9625,224.954797 L126.9625,46.9547967 L166.4625,46.9547967 L166.4625,68.2047967 L168.4625,68.2047967 C173.8375,53.9547967 188.2125,45.5797967 206.7125,45.5797967 C237.4625,45.5797967 255.5875,68.0797967 255.5875,106.329797 L255.5875,120.954797 C255.5875,159.454797 237.3375,182.079797 206.4625,182.079797 Z M190.9625,150.829797 C205.8375,150.829797 214.4625,139.079797 214.4625,118.829797 L214.4625,108.954797 C214.4625,88.5797967 205.8375,76.9547967 190.7125,76.9547967 C175.9625,76.9547967 166.8375,88.5797967 166.8375,107.829797 L166.8375,120.829797 C166.8375,139.079797 176.3375,150.829797 190.9625,150.829797 Z M3.43749976,87.2047967 C3.43749976,56.4547967 29.6874998,44.5797967 59.5624998,44.5797967 C90.3124998,44.5797967 112.5625,58.3297967 112.5625,84.8297967 L77.8124998,84.8297967 C77.0624998,77.8297967 70.9374998,70.9547967 59.0624998,70.9547967 C47.4374998,70.9547967 41.0624998,76.3297967 41.0624998,84.2047967 C41.0624998,96.4547967 62.4374998,97.9547967 76.4374998,100.329797 C101.0625,104.329797 117.0625,114.829797 117.0625,138.329797 C117.0625,165.954797 95.5624998,183.079797 57.3124998,183.079797 C20.6874998,183.079797 0.562499762,166.204797 0.562499762,142.454797 L39.1874998,142.454797 C40.0624998,150.579797 46.8124998,156.579797 59.1874998,156.579797 C72.8124998,156.579797 78.5624998,150.579797 78.5624998,142.954797 C78.5624998,131.579797 62.3124998,130.579797 45.6874998,127.454797 C22.3124998,122.829797 3.43749976,113.204797 3.43749976,87.2047967 Z" id="splitr_text_outlines"></path>
            </g>
            <g id="site_circle" transform="translate(402.000000, 469.000000)">
                <path d="M4.99218027,21.9446528 C4.99218027,11.6828563 12.9503082,4.98127493 24.8875,4.98127493 C36.8246919,4.98127493 44.7828198,11.7875685 44.7828198,21.9446528 C44.7828198,32.1017371 36.9294041,38.8033185 24.8875,38.8033185 C13.0550204,38.8033185 4.99218027,32.1017371 4.99218027,21.9446528 Z" id="site_circle_dot_i" fill="#24558E"></path>
                <path d="M2.26997621,21.8586481 C2.26997621,10.1135582 11.3784133,2.44329547 25.0410688,2.44329547 C38.7037244,2.44329547 47.8121614,10.2334061 47.8121614,21.8586481 C47.8121614,33.4838901 38.8235722,41.1541529 25.0410688,41.1541529 C11.4982611,41.1541529 2.26997621,33.4838901 2.26997621,21.8586481 Z M5.22412578,21.850874 C5.22412578,31.9679449 13.2552027,38.6431257 25.0410688,38.6431257 C37.0355343,38.6431257 44.8580118,31.9679449 44.8580118,21.850874 C44.8580118,11.7338031 36.9312346,4.9543226 25.0410688,4.9543226 C13.150903,4.9543226 5.22412578,11.6295034 5.22412578,21.850874 Z" id="site_circle_inside" fill="#F4F2DB"></path>
                <path d="M0.22468359,21.8640304 C0.22468359,9.06400018 10.1512377,0.704796738 25.0410688,0.704796738 C39.9308999,0.704796738 49.857454,9.19461273 49.857454,21.8640304 C49.857454,34.5334482 40.0615125,42.8926516 25.0410688,42.8926516 C10.2818502,42.8926516 0.22468359,34.5334482 0.22468359,21.8640304 Z M3.44417397,21.8555581 C3.44417397,32.8813413 12.1965998,40.1560848 25.0410688,40.1560848 C38.1128736,40.1560848 46.6379636,32.8813413 46.6379636,21.8555581 C46.6379636,10.829775 37.9992057,3.44136356 25.0410688,3.44136356 C12.0829319,3.44136356 3.44417397,10.7161071 3.44417397,21.8555581 Z" id="site_circle_outside" fill="#1357A6"></path>
            </g>
            <g id="traj_markers" transform="translate(93.000000, 61.000000)" fill="#9B9B9B">
                <circle id="traj_marker_01" cx="308.967898" cy="277.030328" r="12.4492787"></circle>
                <circle id="traj_marker_02" cx="279.528318" cy="178.390793" r="12.4492787"></circle>
                <circle id="traj_marker_03" cx="243.454875" cy="90.4597626" r="12.4492787"></circle>
                <circle id="traj_marker_04" cx="195.94892" cy="13.2789326" r="12.4492787"></circle>
                <circle id="traj_marker_05" cx="255.248325" cy="237.078903" r="12.4492787"></circle>
                <circle id="traj_marker_06" cx="148.229023" cy="104.560872" r="12.4492787"></circle>
                <circle id="traj_marker_07" cx="264.812404" cy="310.573531" r="12.4492787"></circle>
                <circle id="traj_marker_08" cx="200.40873" cy="231.836511" r="12.4492787"></circle>
                <circle id="traj_marker_09" cx="137.298806" cy="176.688913" r="12.4492787"></circle>
                <circle id="traj_marker_10" cx="47.8730769" cy="121.017728" r="12.4492787"></circle>
                <circle id="traj_marker_11" cx="163.626408" cy="261.954862" r="12.4492787"></circle>
                <circle id="traj_marker_12" cx="12.6362851" cy="182.882188" r="12.4492787"></circle>
            </g>
        </g>
    </g>
</svg>